#!OML:ASF F:\VICON\USERDATA\INSTALL\rory3\rory3.ASF
:FULLY-SPECIFIED
:DEGREES
4068
root -12.8448 17.7925 13.1865 550.878 -76.6047 169.105
lowerback 8.96317 1.04499 -1.34413
upperback 1.42083 1.20726 -0.122795
thorax -3.57569 0.594254 0.486362
lowerneck -9.70781 0.310134 -12.4447
upperneck 43.8972 -0.583837 2.956
head 18.113 -2.9134 3.23112
rclavicle 4.29623e-014 -4.37326e-015
rhumerus -35.0905 -14.86 -79.7441
rradius 33.7931
rwrist 4.18956
rhand -16.9459 5.10183
rfingers 7.12502
rthumb 9.28754 -24.6736
lclavicle 4.29623e-014 -4.37326e-015
lhumerus -35.3151 15.4847 80.0349
lradius 27.5106
lwrist -6.92348
lhand -17.901 26.3864
lfingers 7.12502
lthumb 8.36586 56.2007
rfemur -9.61351 -8.14683 19.0675
rtibia 37.2654
rfoot -18.5532 -23.9348
rtoes 23.8831
lfemur -11.4061 3.88552 -24.8968
ltibia 24.0946
lfoot -8.5726 -0.0799998
ltoes -4.93829
4069
root -12.8523 17.7991 13.193 551.302 -77.1945 168.715
lowerback 9.10392 1.11831 -1.32001
upperback 1.36083 1.30566 -0.116386
thorax -3.71779 0.644141 0.464315
lowerneck -9.79623 0.259393 -12.414
upperneck 44.0275 -0.631232 2.93273
head 18.2249 -2.93264 3.21158
rclavicle 1.9133e-014 -3.18055e-015
rhumerus -34.9671 -13.9496 -80.207
rradius 33.9778
rwrist 3.63015
rhand -17.0746 4.86616
rfingers 7.12502
rthumb 9.16333 -24.9148
lclavicle 1.9133e-014 -3.18055e-015
lhumerus -35.1787 14.6351 80.5492
lradius 27.9415
lwrist -6.3826
lhand -17.8666 26.7285
lfingers 7.12502
lthumb 8.39906 56.5415
rfemur -9.81248 -7.33833 18.9878
rtibia 37.753
rfoot -18.8564 -23.1565
rtoes 25.488
lfemur -11.2748 3.52593 -24.9276
ltibia 23.7228
lfoot -8.35528 -0.3197
ltoes -4.89978
4070
root -12.8576 17.7998 13.1999 551.993 -77.7911 168.039
lowerback 9.18725 1.14874 -1.26109
upperback 1.36953 1.3479 -0.168743
thorax -3.7533 0.663848 0.370319
lowerneck -9.85412 0.26833 -12.4201
upperneck 44.0124 -0.613445 3.04997
head 18.2273 -2.89881 3.27601
rclavicle -9.74045e-015 0
rhumerus -34.8484 -13.177 -80.7339
rradius 34.3535
rwrist 3.23016
rhand -17.0995 4.64399
rfingers 7.12502
rthumb 9.13929 -25.138
lclavicle -9.74045e-015 0
lhumerus -34.8893 13.6224 81.0628
lradius 28.2937
lwrist -5.47073
lhand -18.0615 26.8872
lfingers 7.12502
lthumb 8.21096 56.7076
rfemur -9.95023 -7.05143 18.8988
rtibia 38.2431
rfoot -18.5286 -22.3324
rtoes 23.5566
lfemur -11.1632 3.15099 -25.021
ltibia 23.4368
lfoot -8.25042 -0.512597
ltoes -5.9356
4071
root -12.8635 17.8051 13.2047 551.898 -78.3215 168.219
lowerback 9.18316 1.20158 -0.980366
upperback 1.3641 1.44416 -0.222759
thorax -3.74984 0.707748 0.144794
lowerneck -9.78501 0.273961 -12.305
upperneck 43.8921 -0.612354 3.08218
head 18.1304 -2.85446 3.27242
rclavicle 1.30452e-014 -1.98785e-015
rhumerus -34.8517 -13.3229 -80.989
rradius 34.674
rwrist 3.78027
rhand -16.6586 4.72196
rfingers 7.12502
rthumb 9.56476 -25.0409
lclavicle 1.30452e-014 -1.98785e-015
lhumerus -34.6024 12.9574 81.3738
lradius 28.5245
lwrist -5.00557
lhand -18.1459 26.9638
lfingers 7.12502
lthumb 8.12953 56.7874
rfemur -10.1529 -6.81477 18.9947
rtibia 38.6777
rfoot -18.19 -21.3613
rtoes 19.8931
lfemur -11.1807 2.96553 -24.902
ltibia 23.3038
lfoot -8.26359 -0.824083
ltoes -6.78714
4072
root -12.8697 17.8096 13.2077 552.316 -78.74 167.905
lowerback 9.16997 1.29374 -0.89709
upperback 1.32421 1.57484 -0.254601
thorax -3.78215 0.771969 0.0486411
lowerneck -9.7161 0.236239 -12.2034
upperneck 43.8281 -0.644794 3.00724
head 18.0762 -2.84665 3.21434
rclavicle -1.71452e-015 3.18055e-015
rhumerus -34.7118 -14.0277 -80.931
rradius 34.5125
rwrist 4.99068
rhand -16.2811 5.13547
rfingers 7.12502
rthumb 9.92897 -24.6104
lclavicle -1.71452e-015 3.18055e-015
lhumerus -34.4383 12.3693 81.6943
lradius 28.8339
lwrist -4.61938
lhand -18.0371 26.8443
lfingers 7.12502
lthumb 8.23455 56.6638
rfemur -10.404 -6.04265 18.9181
rtibia 39.0761
rfoot -18.503 -19.9492
rtoes 17.0229
lfemur -11.2947 3.02911 -24.8898
ltibia 23.2673
lfoot -8.27902 -1.34999
ltoes -6.03291
4073
root -12.8735 17.8075 13.2088 552.866 -79.2041 167.386
lowerback 9.24246 1.36182 -0.934644
upperback 1.32208 1.66099 -0.243437
thorax -3.82689 0.815237 0.0688629
lowerneck -9.77574 0.207214 -12.2012
upperneck 43.8486 -0.663215 3.03314
head 18.1076 -2.8428 3.2269
rclavicle -5.76476e-015 6.55989e-015
rhumerus -34.3269 -14.0853 -81.0599
rradius 34.1236
rwrist 5.50328
rhand -16.198 5.75901
rfingers 7.12502
rthumb 10.0091 -23.983
lclavicle -5.76476e-015 6.55989e-015
lhumerus -34.2821 11.7272 82.0627
lradius 29.1993
lwrist -4.00487
lhand -18.0971 26.6812
lfingers 7.12502
lthumb 8.17662 56.503
rfemur -10.5695 -4.88651 18.7969
rtibia 39.3987
rfoot -19.3383 -17.7102
rtoes 16.6637
lfemur -11.3834 3.03583 -24.8982
ltibia 23.3129
lfoot -8.31081 -1.87519
ltoes -5.39613
4074
root -12.8766 17.8 13.2048 553.405 -79.7765 166.807
lowerback 9.37986 1.41021 -1.01315
upperback 1.34341 1.71645 -0.201508
thorax -3.88535 0.843601 0.146382
lowerneck -9.81839 0.173757 -12.1713
upperneck 43.8418 -0.679044 3.02099
head 18.1174 -2.83551 3.21635
rclavicle 1.27471e-014 7.95139e-016
rhumerus -34.0592 -13.99 -81.1283
rradius 34.0674
rwrist 6.49775
rhand -15.3805 6.00719
rfingers 7.12502
rthumb 10.7977 -23.6953
lclavicle 1.27471e-014 7.95139e-016
lhumerus -34.0704 11.734 82.2009
lradius 29.4384
lwrist -4.11322
lhand -18.2611 26.7197
lfingers 7.12502
lthumb 8.0183 56.5476
rfemur -10.6737 -3.96111 18.7126
rtibia 39.6808
rfoot -20.0836 -14.993
rtoes 17.0987
lfemur -11.4192 2.99261 -24.8709
ltibia 23.4062
lfoot -8.45666 -2.3755
ltoes -5.60597
4075
root -12.8783 17.7943 13.2002 554.087 -80.4493 166.151
lowerback 9.4766 1.4154 -1.06035
upperback 1.33305 1.71935 -0.154048
thorax -3.95287 0.846203 0.21912
lowerneck -9.78608 0.11561 -12.1831
upperneck 43.7478 -0.72976 3.01602
head 18.0585 -2.84171 3.20899
rclavicle -1.62506e-014 3.57812e-015
rhumerus -33.8672 -14.0194 -81.1394
rradius 34.1788
rwrist 7.73832
rhand -14.5855 6.01511
rfingers 7.12502
rthumb 11.5645 -23.6458
lclavicle -1.62506e-014 3.57812e-015
lhumerus -33.9416 12.2931 82.132
lradius 29.7376
lwrist -4.74651
lhand -18.4156 26.8328
lfingers 7.12502
lthumb 7.86925 56.6663
rfemur -10.8708 -3.38722 18.7182
rtibia 39.9587
rfoot -20.4587 -12.5672
rtoes 15.0476
lfemur -11.5355 2.80422 -24.8284
ltibia 23.5125
lfoot -8.59176 -2.78839
ltoes -5.86162
4076
root -12.881 17.7877 13.1987 555.313 -81.0041 164.941
lowerback 9.51201 1.40936 -1.11863
upperback 1.34919 1.70371 -0.17249
thorax -3.95674 0.838928 0.234124
lowerneck -9.80068 0.0960142 -12.2024
upperneck 43.6921 -0.709626 2.99642
head 18.0275 -2.82648 3.20833
rclavicle 3.2054e-015 -2.78299e-015
rhumerus -33.6359 -13.5577 -81.5488
rradius 34.3322
rwrist 7.16635
rhand -15.1393 6.21393
rfingers 7.12502
rthumb 11.0303 -23.4762
lclavicle 3.2054e-015 -2.78299e-015
lhumerus -33.8837 12.1993 82.222
lradius 30.2398
lwrist -4.52564
lhand -18.2594 26.8236
lfingers 7.12502
lthumb 8.01999 56.6515
rfemur -11.0928 -2.94827 18.6285
rtibia 40.2513
rfoot -20.5646 -10.5607
rtoes 9.97843
lfemur -11.6126 2.43032 -24.9038
ltibia 23.5791
lfoot -8.58328 -2.91026
ltoes -6.12794
4077
root -12.8879 17.7863 13.1954 556.332 -81.4825 163.93
lowerback 9.44915 1.39914 -1.13445
upperback 1.41055 1.68718 -0.208315
thorax -3.85711 0.829829 0.210513
lowerneck -9.8474 0.10799 -12.1098
upperneck 43.6658 -0.639719 2.90133
head 18.0154 -2.78541 3.16034
rclavicle -1.68222e-014 -5.76476e-015
rhumerus -33.3618 -12.9727 -82.0398
rradius 34.5337
rwrist 6.43668
rhand -15.5762 6.28278
rfingers 7.12502
rthumb 10.609 -23.4294
lclavicle -1.68222e-014 -5.76476e-015
lhumerus -33.7895 11.7166 82.4042
lradius 30.7342
lwrist -3.98114
lhand -18.24 26.7196
lfingers 7.12502
lthumb 8.03868 56.5467
rfemur -11.328 -2.40961 18.5354
rtibia 40.5316
rfoot -20.806 -8.61969
rtoes 4.7379
lfemur -11.6351 2.06593 -24.9473
ltibia 23.5994
lfoot -8.57955 -2.99718
ltoes -5.07472
4078
root -12.8963 17.7889 13.1906 557.213 -82.0096 163.044
lowerback 9.37237 1.38714 -1.20528
upperback 1.49752 1.66611 -0.166243
thorax -3.72704 0.819266 0.299756
lowerneck -9.82882 0.107447 -12.0498
upperneck 43.5298 -0.574737 2.79788
head 17.9207 -2.74298 3.11196
rclavicle -2.98177e-015 4.77083e-015
rhumerus -33.0201 -12.7109 -82.2242
rradius 34.6599
rwrist 6.80269
rhand -15.5432 6.19143
rfingers 7.12502
rthumb 10.6408 -23.5191
lclavicle -2.98177e-015 4.77083e-015
lhumerus -33.6734 11.4342 82.6373
lradius 31.1837
lwrist -3.77204
lhand -18.3086 26.9822
lfingers 7.12502
lthumb 7.97252 56.8118
rfemur -11.5059 -1.72343 18.4852
rtibia 40.7502
rfoot -21.4981 -6.53259
rtoes 2.46707
lfemur -11.6519 1.87309 -24.9325
ltibia 23.6313
lfoot -8.69439 -3.30705
ltoes -3.45188
